<?xml version="1.0" encoding="UTF-8" standalone="no"?>
<!DOCTYPE svg PUBLIC "-//W3C//DTD SVG 1.1//EN"
 "http://www.w3.org/Graphics/SVG/1.1/DTD/svg11.dtd">
<!-- Generated by graphviz version 2.36.0 (20140111.2315)
 -->
<!-- Title: G Pages: 1 -->
<svg width="569pt" height="3240pt"
 viewBox="0.00 0.00 569.00 3240.00" xmlns="http://www.w3.org/2000/svg" xmlns:xlink="http://www.w3.org/1999/xlink">
<g id="graph0" class="graph" transform="scale(1 1) rotate(0) translate(4 3236)">
<title>G</title>
<polygon fill="white" stroke="none" points="-4,4 -4,-3236 565,-3236 565,4 -4,4"/>
<!-- n1 -->
<g id="node1" class="node"><title>n1</title>
<g id="a_node1"><a xlink:title="[[C]]:&#45;1_">
<ellipse fill="none" stroke="black" cx="124" cy="-150" rx="120.312" ry="37.4533"/>
<text text-anchor="middle" x="124" y="-161.3" font-family="Times,serif" font-size="14.00">Node1</text>
<text text-anchor="start" x="47" y="-146.3" font-family="Times,serif" font-size="14.00">module = nn.TotalVariation</text>
<text text-anchor="middle" x="124" y="-131.3" font-family="Times,serif" font-size="14.00">reverseMap = {}</text>
</a>
</g>
</g>
<!-- n2 -->
<g id="node2" class="node"><title>n2</title>
<g id="a_node2"><a xlink:title="[[C]]:&#45;1_">
<ellipse fill="none" stroke="black" cx="124" cy="-38" rx="77.1743" ry="37.4533"/>
<text text-anchor="middle" x="124" y="-49.3" font-family="Times,serif" font-size="14.00">Node2</text>
<text text-anchor="start" x="77" y="-34.3" font-family="Times,serif" font-size="14.00">input = {}</text>
<text text-anchor="middle" x="124" y="-19.3" font-family="Times,serif" font-size="14.00">reverseMap = {}</text>
</a>
</g>
</g>
<!-- n1&#45;&gt;n2 -->
<g id="edge1" class="edge"><title>n1&#45;&gt;n2</title>
<path fill="none" stroke="black" d="M124,-112.372C124,-103.927 124,-94.8286 124,-86.0106"/>
<polygon fill="black" stroke="black" points="127.5,-85.8435 124,-75.8435 120.5,-85.8435 127.5,-85.8435"/>
</g>
<!-- n3 -->
<g id="node3" class="node"><title>n3</title>
<g id="a_node3"><a xlink:title="[[C]]:&#45;1_">
<ellipse fill="none" stroke="black" cx="124" cy="-262" rx="84.2187" ry="37.4533"/>
<text text-anchor="middle" x="124" y="-273.3" font-family="Times,serif" font-size="14.00">Node3</text>
<text text-anchor="start" x="72.5" y="-258.3" font-family="Times,serif" font-size="14.00">module = nn.Tanh</text>
<text text-anchor="middle" x="124" y="-243.3" font-family="Times,serif" font-size="14.00">reverseMap = {}</text>
</a>
</g>
</g>
<!-- n3&#45;&gt;n1 -->
<g id="edge2" class="edge"><title>n3&#45;&gt;n1</title>
<path fill="none" stroke="black" d="M124,-224.372C124,-215.927 124,-206.829 124,-198.011"/>
<polygon fill="black" stroke="black" points="127.5,-197.843 124,-187.844 120.5,-197.844 127.5,-197.843"/>
</g>
<!-- n4 -->
<g id="node4" class="node"><title>n4</title>
<g id="a_node4"><a xlink:title="[[C]]:&#45;1_">
<ellipse fill="none" stroke="black" cx="124" cy="-384" rx="124.176" ry="48.1667"/>
<text text-anchor="middle" x="124" y="-402.8" font-family="Times,serif" font-size="14.00">Node4</text>
<text text-anchor="start" x="44" y="-387.8" font-family="Times,serif" font-size="14.00">module = nn.CDivTable</text>
<text text-anchor="start" x="44" y="-372.8" font-family="Times,serif" font-size="14.00">reverseMap = {}</text>
<text text-anchor="middle" x="124" y="-357.8" font-family="Times,serif" font-size="14.00">mapindex = {Node5,Node6}</text>
</a>
</g>
</g>
<!-- n4&#45;&gt;n3 -->
<g id="edge3" class="edge"><title>n4&#45;&gt;n3</title>
<path fill="none" stroke="black" d="M124,-335.573C124,-327.096 124,-318.269 124,-309.81"/>
<polygon fill="black" stroke="black" points="127.5,-309.722 124,-299.722 120.5,-309.722 127.5,-309.722"/>
</g>
<!-- n5 -->
<g id="node5" class="node"><title>n5</title>
<g id="a_node5"><a xlink:title="[[C]]:&#45;1_">
<ellipse fill="none" stroke="black" cx="165" cy="-3082" rx="94.0678" ry="37.4533"/>
<text text-anchor="middle" x="165" y="-3093.3" font-family="Times,serif" font-size="14.00">Node5</text>
<text text-anchor="start" x="106.5" y="-3078.3" font-family="Times,serif" font-size="14.00">module = nn.Identity</text>
<text text-anchor="middle" x="165" y="-3063.3" font-family="Times,serif" font-size="14.00">reverseMap = {}</text>
</a>
</g>
</g>
<!-- n5&#45;&gt;n4 -->
<g id="edge4" class="edge"><title>n5&#45;&gt;n4</title>
<path fill="none" stroke="black" d="M105.489,-3052.76C87.4774,-3041.34 69.4545,-3026.43 58,-3008 22.7,-2951.2 37,-2925.88 37,-2859 37,-2859 37,-2859 37,-617 37,-553.282 66.127,-485.628 90.6745,-439.925"/>
<polygon fill="black" stroke="black" points="93.7819,-441.537 95.5129,-431.085 87.6415,-438.177 93.7819,-441.537"/>
</g>
<!-- n29 -->
<g id="node29" class="node"><title>n29</title>
<g id="a_node29"><a xlink:title="[[C]]:&#45;1_">
<ellipse fill="none" stroke="black" cx="295" cy="-2970" rx="228.093" ry="37.4533"/>
<text text-anchor="middle" x="295" y="-2981.3" font-family="Times,serif" font-size="14.00">Node29</text>
<text text-anchor="start" x="141.5" y="-2966.3" font-family="Times,serif" font-size="14.00">module = nn.SpatialConvolution(1 &#45;&gt; 64, 3x3, 1,1, 1,1)</text>
<text text-anchor="middle" x="295" y="-2951.3" font-family="Times,serif" font-size="14.00">reverseMap = {}</text>
</a>
</g>
</g>
<!-- n5&#45;&gt;n29 -->
<g id="edge29" class="edge"><title>n5&#45;&gt;n29</title>
<path fill="none" stroke="black" d="M204.357,-3047.7C217.101,-3036.91 231.411,-3024.81 244.831,-3013.45"/>
<polygon fill="black" stroke="black" points="247.237,-3016 252.61,-3006.87 242.716,-3010.66 247.237,-3016"/>
</g>
<!-- n6 -->
<g id="node6" class="node"><title>n6</title>
<g id="a_node6"><a xlink:title="[[C]]:&#45;1_">
<ellipse fill="none" stroke="black" cx="212" cy="-506" rx="114.327" ry="37.4533"/>
<text text-anchor="middle" x="212" y="-517.3" font-family="Times,serif" font-size="14.00">Node6</text>
<text text-anchor="start" x="139" y="-502.3" font-family="Times,serif" font-size="14.00">module = nn.AddConstant</text>
<text text-anchor="middle" x="212" y="-487.3" font-family="Times,serif" font-size="14.00">reverseMap = {}</text>
</a>
</g>
</g>
<!-- n6&#45;&gt;n4 -->
<g id="edge5" class="edge"><title>n6&#45;&gt;n4</title>
<path fill="none" stroke="black" d="M185.835,-469.321C178.799,-459.726 171.031,-449.133 163.445,-438.789"/>
<polygon fill="black" stroke="black" points="166.154,-436.564 157.418,-430.57 160.509,-440.704 166.154,-436.564"/>
</g>
<!-- n7 -->
<g id="node7" class="node"><title>n7</title>
<g id="a_node7"><a xlink:title="[[C]]:&#45;1_">
<ellipse fill="none" stroke="black" cx="165" cy="-3194" rx="77.1743" ry="37.4533"/>
<text text-anchor="middle" x="165" y="-3205.3" font-family="Times,serif" font-size="14.00">Node7</text>
<text text-anchor="start" x="118" y="-3190.3" font-family="Times,serif" font-size="14.00">input = {}</text>
<text text-anchor="middle" x="165" y="-3175.3" font-family="Times,serif" font-size="14.00">reverseMap = {}</text>
</a>
</g>
</g>
<!-- n7&#45;&gt;n5 -->
<g id="edge6" class="edge"><title>n7&#45;&gt;n5</title>
<path fill="none" stroke="black" d="M165,-3156.37C165,-3147.93 165,-3138.83 165,-3130.01"/>
<polygon fill="black" stroke="black" points="168.5,-3129.84 165,-3119.84 161.5,-3129.84 168.5,-3129.84"/>
</g>
<!-- n8 -->
<g id="node8" class="node"><title>n8</title>
<g id="a_node8"><a xlink:title="[[C]]:&#45;1_">
<ellipse fill="none" stroke="black" cx="276" cy="-618" rx="87.5215" ry="37.4533"/>
<text text-anchor="middle" x="276" y="-629.3" font-family="Times,serif" font-size="14.00">Node8</text>
<text text-anchor="start" x="222" y="-614.3" font-family="Times,serif" font-size="14.00">module = nn.ReLU</text>
<text text-anchor="middle" x="276" y="-599.3" font-family="Times,serif" font-size="14.00">reverseMap = {}</text>
</a>
</g>
</g>
<!-- n8&#45;&gt;n6 -->
<g id="edge7" class="edge"><title>n8&#45;&gt;n6</title>
<path fill="none" stroke="black" d="M255.221,-581.286C249.744,-571.872 243.765,-561.595 238.048,-551.77"/>
<polygon fill="black" stroke="black" points="240.948,-549.794 232.894,-542.911 234.897,-553.315 240.948,-549.794"/>
</g>
<!-- n9 -->
<g id="node9" class="node"><title>n9</title>
<g id="a_node9"><a xlink:title="[[C]]:&#45;1_">
<ellipse fill="none" stroke="black" cx="309" cy="-730" rx="243.367" ry="37.4533"/>
<text text-anchor="middle" x="309" y="-741.3" font-family="Times,serif" font-size="14.00">Node9</text>
<text text-anchor="start" x="145" y="-726.3" font-family="Times,serif" font-size="14.00">module = nn.SpatialFullConvolution(64 &#45;&gt; 1, 3x3, 1,1, 1,1)</text>
<text text-anchor="middle" x="309" y="-711.3" font-family="Times,serif" font-size="14.00">reverseMap = {}</text>
</a>
</g>
</g>
<!-- n9&#45;&gt;n8 -->
<g id="edge8" class="edge"><title>n9&#45;&gt;n8</title>
<path fill="none" stroke="black" d="M298.011,-692.372C295.395,-683.651 292.57,-674.235 289.845,-665.149"/>
<polygon fill="black" stroke="black" points="293.166,-664.041 286.941,-655.468 286.462,-666.052 293.166,-664.041"/>
</g>
<!-- n10 -->
<g id="node10" class="node"><title>n10</title>
<g id="a_node10"><a xlink:title="[[C]]:&#45;1_">
<ellipse fill="none" stroke="black" cx="310" cy="-842" rx="87.5215" ry="37.4533"/>
<text text-anchor="middle" x="310" y="-853.3" font-family="Times,serif" font-size="14.00">Node10</text>
<text text-anchor="start" x="256" y="-838.3" font-family="Times,serif" font-size="14.00">module = nn.ReLU</text>
<text text-anchor="middle" x="310" y="-823.3" font-family="Times,serif" font-size="14.00">reverseMap = {}</text>
</a>
</g>
</g>
<!-- n10&#45;&gt;n9 -->
<g id="edge9" class="edge"><title>n10&#45;&gt;n9</title>
<path fill="none" stroke="black" d="M309.667,-804.372C309.59,-795.927 309.508,-786.829 309.427,-778.011"/>
<polygon fill="black" stroke="black" points="312.926,-777.811 309.335,-767.844 305.926,-777.875 312.926,-777.811"/>
</g>
<!-- n11 -->
<g id="node11" class="node"><title>n11</title>
<g id="a_node11"><a xlink:title="[[C]]:&#45;1_">
<ellipse fill="none" stroke="black" cx="312" cy="-954" rx="207.334" ry="37.4533"/>
<text text-anchor="middle" x="312" y="-965.3" font-family="Times,serif" font-size="14.00">Node11</text>
<text text-anchor="start" x="173" y="-950.3" font-family="Times,serif" font-size="14.00">module = nn.SpatialBatchNormalization (4D) (64)</text>
<text text-anchor="middle" x="312" y="-935.3" font-family="Times,serif" font-size="14.00">reverseMap = {}</text>
</a>
</g>
</g>
<!-- n11&#45;&gt;n10 -->
<g id="edge10" class="edge"><title>n11&#45;&gt;n10</title>
<path fill="none" stroke="black" d="M311.334,-916.372C311.18,-907.927 311.015,-898.829 310.855,-890.011"/>
<polygon fill="black" stroke="black" points="314.351,-889.778 310.67,-879.844 307.352,-889.906 314.351,-889.778"/>
</g>
<!-- n12 -->
<g id="node12" class="node"><title>n12</title>
<g id="a_node12"><a xlink:title="[[C]]:&#45;1_">
<ellipse fill="none" stroke="black" cx="313" cy="-1066" rx="248.292" ry="37.4533"/>
<text text-anchor="middle" x="313" y="-1077.3" font-family="Times,serif" font-size="14.00">Node12</text>
<text text-anchor="start" x="145.5" y="-1062.3" font-family="Times,serif" font-size="14.00">module = nn.SpatialFullConvolution(64 &#45;&gt; 64, 3x3, 1,1, 1,1)</text>
<text text-anchor="middle" x="313" y="-1047.3" font-family="Times,serif" font-size="14.00">reverseMap = {}</text>
</a>
</g>
</g>
<!-- n12&#45;&gt;n11 -->
<g id="edge11" class="edge"><title>n12&#45;&gt;n11</title>
<path fill="none" stroke="black" d="M312.667,-1028.37C312.59,-1019.93 312.508,-1010.83 312.427,-1002.01"/>
<polygon fill="black" stroke="black" points="315.926,-1001.81 312.335,-991.844 308.926,-1001.87 315.926,-1001.81"/>
</g>
<!-- n13 -->
<g id="node13" class="node"><title>n13</title>
<g id="a_node13"><a xlink:title="[[C]]:&#45;1_">
<ellipse fill="none" stroke="black" cx="313" cy="-1178" rx="87.5215" ry="37.4533"/>
<text text-anchor="middle" x="313" y="-1189.3" font-family="Times,serif" font-size="14.00">Node13</text>
<text text-anchor="start" x="259" y="-1174.3" font-family="Times,serif" font-size="14.00">module = nn.ReLU</text>
<text text-anchor="middle" x="313" y="-1159.3" font-family="Times,serif" font-size="14.00">reverseMap = {}</text>
</a>
</g>
</g>
<!-- n13&#45;&gt;n12 -->
<g id="edge12" class="edge"><title>n13&#45;&gt;n12</title>
<path fill="none" stroke="black" d="M313,-1140.37C313,-1131.93 313,-1122.83 313,-1114.01"/>
<polygon fill="black" stroke="black" points="316.5,-1113.84 313,-1103.84 309.5,-1113.84 316.5,-1113.84"/>
</g>
<!-- n14 -->
<g id="node14" class="node"><title>n14</title>
<g id="a_node14"><a xlink:title="[[C]]:&#45;1_">
<ellipse fill="none" stroke="black" cx="313" cy="-1290" rx="207.334" ry="37.4533"/>
<text text-anchor="middle" x="313" y="-1301.3" font-family="Times,serif" font-size="14.00">Node14</text>
<text text-anchor="start" x="174" y="-1286.3" font-family="Times,serif" font-size="14.00">module = nn.SpatialBatchNormalization (4D) (64)</text>
<text text-anchor="middle" x="313" y="-1271.3" font-family="Times,serif" font-size="14.00">reverseMap = {}</text>
</a>
</g>
</g>
<!-- n14&#45;&gt;n13 -->
<g id="edge13" class="edge"><title>n14&#45;&gt;n13</title>
<path fill="none" stroke="black" d="M313,-1252.37C313,-1243.93 313,-1234.83 313,-1226.01"/>
<polygon fill="black" stroke="black" points="316.5,-1225.84 313,-1215.84 309.5,-1225.84 316.5,-1225.84"/>
</g>
<!-- n15 -->
<g id="node15" class="node"><title>n15</title>
<g id="a_node15"><a xlink:title="[[C]]:&#45;1_">
<ellipse fill="none" stroke="black" cx="313" cy="-1402" rx="248.292" ry="37.4533"/>
<text text-anchor="middle" x="313" y="-1413.3" font-family="Times,serif" font-size="14.00">Node15</text>
<text text-anchor="start" x="145.5" y="-1398.3" font-family="Times,serif" font-size="14.00">module = nn.SpatialFullConvolution(64 &#45;&gt; 64, 3x3, 1,1, 1,1)</text>
<text text-anchor="middle" x="313" y="-1383.3" font-family="Times,serif" font-size="14.00">reverseMap = {}</text>
</a>
</g>
</g>
<!-- n15&#45;&gt;n14 -->
<g id="edge14" class="edge"><title>n15&#45;&gt;n14</title>
<path fill="none" stroke="black" d="M313,-1364.37C313,-1355.93 313,-1346.83 313,-1338.01"/>
<polygon fill="black" stroke="black" points="316.5,-1337.84 313,-1327.84 309.5,-1337.84 316.5,-1337.84"/>
</g>
<!-- n16 -->
<g id="node16" class="node"><title>n16</title>
<g id="a_node16"><a xlink:title="[[C]]:&#45;1_">
<ellipse fill="none" stroke="black" cx="313" cy="-1514" rx="87.5215" ry="37.4533"/>
<text text-anchor="middle" x="313" y="-1525.3" font-family="Times,serif" font-size="14.00">Node16</text>
<text text-anchor="start" x="259" y="-1510.3" font-family="Times,serif" font-size="14.00">module = nn.ReLU</text>
<text text-anchor="middle" x="313" y="-1495.3" font-family="Times,serif" font-size="14.00">reverseMap = {}</text>
</a>
</g>
</g>
<!-- n16&#45;&gt;n15 -->
<g id="edge15" class="edge"><title>n16&#45;&gt;n15</title>
<path fill="none" stroke="black" d="M313,-1476.37C313,-1467.93 313,-1458.83 313,-1450.01"/>
<polygon fill="black" stroke="black" points="316.5,-1449.84 313,-1439.84 309.5,-1449.84 316.5,-1449.84"/>
</g>
<!-- n17 -->
<g id="node17" class="node"><title>n17</title>
<g id="a_node17"><a xlink:title="[[C]]:&#45;1_">
<ellipse fill="none" stroke="black" cx="313" cy="-1626" rx="207.334" ry="37.4533"/>
<text text-anchor="middle" x="313" y="-1637.3" font-family="Times,serif" font-size="14.00">Node17</text>
<text text-anchor="start" x="174" y="-1622.3" font-family="Times,serif" font-size="14.00">module = nn.SpatialBatchNormalization (4D) (64)</text>
<text text-anchor="middle" x="313" y="-1607.3" font-family="Times,serif" font-size="14.00">reverseMap = {}</text>
</a>
</g>
</g>
<!-- n17&#45;&gt;n16 -->
<g id="edge16" class="edge"><title>n17&#45;&gt;n16</title>
<path fill="none" stroke="black" d="M313,-1588.37C313,-1579.93 313,-1570.83 313,-1562.01"/>
<polygon fill="black" stroke="black" points="316.5,-1561.84 313,-1551.84 309.5,-1561.84 316.5,-1561.84"/>
</g>
<!-- n18 -->
<g id="node18" class="node"><title>n18</title>
<g id="a_node18"><a xlink:title="[[C]]:&#45;1_">
<ellipse fill="none" stroke="black" cx="313" cy="-1738" rx="248.292" ry="37.4533"/>
<text text-anchor="middle" x="313" y="-1749.3" font-family="Times,serif" font-size="14.00">Node18</text>
<text text-anchor="start" x="145.5" y="-1734.3" font-family="Times,serif" font-size="14.00">module = nn.SpatialFullConvolution(64 &#45;&gt; 64, 3x3, 1,1, 1,1)</text>
<text text-anchor="middle" x="313" y="-1719.3" font-family="Times,serif" font-size="14.00">reverseMap = {}</text>
</a>
</g>
</g>
<!-- n18&#45;&gt;n17 -->
<g id="edge17" class="edge"><title>n18&#45;&gt;n17</title>
<path fill="none" stroke="black" d="M313,-1700.37C313,-1691.93 313,-1682.83 313,-1674.01"/>
<polygon fill="black" stroke="black" points="316.5,-1673.84 313,-1663.84 309.5,-1673.84 316.5,-1673.84"/>
</g>
<!-- n19 -->
<g id="node19" class="node"><title>n19</title>
<g id="a_node19"><a xlink:title="[[C]]:&#45;1_">
<ellipse fill="none" stroke="black" cx="311" cy="-1850" rx="130.162" ry="37.4533"/>
<text text-anchor="middle" x="311" y="-1861.3" font-family="Times,serif" font-size="14.00">Node19</text>
<text text-anchor="start" x="227" y="-1846.3" font-family="Times,serif" font-size="14.00">module = nn.LeakyReLU(0.2)</text>
<text text-anchor="middle" x="311" y="-1831.3" font-family="Times,serif" font-size="14.00">reverseMap = {}</text>
</a>
</g>
</g>
<!-- n19&#45;&gt;n18 -->
<g id="edge18" class="edge"><title>n19&#45;&gt;n18</title>
<path fill="none" stroke="black" d="M311.666,-1812.37C311.82,-1803.93 311.985,-1794.83 312.145,-1786.01"/>
<polygon fill="black" stroke="black" points="315.648,-1785.91 312.33,-1775.84 308.649,-1785.78 315.648,-1785.91"/>
</g>
<!-- n20 -->
<g id="node20" class="node"><title>n20</title>
<g id="a_node20"><a xlink:title="[[C]]:&#45;1_">
<ellipse fill="none" stroke="black" cx="309" cy="-1962" rx="207.334" ry="37.4533"/>
<text text-anchor="middle" x="309" y="-1973.3" font-family="Times,serif" font-size="14.00">Node20</text>
<text text-anchor="start" x="170" y="-1958.3" font-family="Times,serif" font-size="14.00">module = nn.SpatialBatchNormalization (4D) (64)</text>
<text text-anchor="middle" x="309" y="-1943.3" font-family="Times,serif" font-size="14.00">reverseMap = {}</text>
</a>
</g>
</g>
<!-- n20&#45;&gt;n19 -->
<g id="edge19" class="edge"><title>n20&#45;&gt;n19</title>
<path fill="none" stroke="black" d="M309.666,-1924.37C309.82,-1915.93 309.985,-1906.83 310.145,-1898.01"/>
<polygon fill="black" stroke="black" points="313.648,-1897.91 310.33,-1887.84 306.649,-1897.78 313.648,-1897.91"/>
</g>
<!-- n21 -->
<g id="node21" class="node"><title>n21</title>
<g id="a_node21"><a xlink:title="[[C]]:&#45;1_">
<ellipse fill="none" stroke="black" cx="305" cy="-2074" rx="232.457" ry="37.4533"/>
<text text-anchor="middle" x="305" y="-2085.3" font-family="Times,serif" font-size="14.00">Node21</text>
<text text-anchor="start" x="148.5" y="-2070.3" font-family="Times,serif" font-size="14.00">module = nn.SpatialConvolution(64 &#45;&gt; 64, 3x3, 1,1, 1,1)</text>
<text text-anchor="middle" x="305" y="-2055.3" font-family="Times,serif" font-size="14.00">reverseMap = {}</text>
</a>
</g>
</g>
<!-- n21&#45;&gt;n20 -->
<g id="edge20" class="edge"><title>n21&#45;&gt;n20</title>
<path fill="none" stroke="black" d="M306.332,-2036.37C306.639,-2027.93 306.97,-2018.83 307.291,-2010.01"/>
<polygon fill="black" stroke="black" points="310.794,-2009.96 307.66,-1999.84 303.799,-2009.71 310.794,-2009.96"/>
</g>
<!-- n22 -->
<g id="node22" class="node"><title>n22</title>
<g id="a_node22"><a xlink:title="[[C]]:&#45;1_">
<ellipse fill="none" stroke="black" cx="298" cy="-2186" rx="130.162" ry="37.4533"/>
<text text-anchor="middle" x="298" y="-2197.3" font-family="Times,serif" font-size="14.00">Node22</text>
<text text-anchor="start" x="214" y="-2182.3" font-family="Times,serif" font-size="14.00">module = nn.LeakyReLU(0.2)</text>
<text text-anchor="middle" x="298" y="-2167.3" font-family="Times,serif" font-size="14.00">reverseMap = {}</text>
</a>
</g>
</g>
<!-- n22&#45;&gt;n21 -->
<g id="edge21" class="edge"><title>n22&#45;&gt;n21</title>
<path fill="none" stroke="black" d="M300.331,-2148.37C300.868,-2139.93 301.447,-2130.83 302.008,-2122.01"/>
<polygon fill="black" stroke="black" points="305.513,-2122.05 302.655,-2111.84 298.527,-2121.6 305.513,-2122.05"/>
</g>
<!-- n23 -->
<g id="node23" class="node"><title>n23</title>
<g id="a_node23"><a xlink:title="[[C]]:&#45;1_">
<ellipse fill="none" stroke="black" cx="298" cy="-2298" rx="207.334" ry="37.4533"/>
<text text-anchor="middle" x="298" y="-2309.3" font-family="Times,serif" font-size="14.00">Node23</text>
<text text-anchor="start" x="159" y="-2294.3" font-family="Times,serif" font-size="14.00">module = nn.SpatialBatchNormalization (4D) (64)</text>
<text text-anchor="middle" x="298" y="-2279.3" font-family="Times,serif" font-size="14.00">reverseMap = {}</text>
</a>
</g>
</g>
<!-- n23&#45;&gt;n22 -->
<g id="edge22" class="edge"><title>n23&#45;&gt;n22</title>
<path fill="none" stroke="black" d="M298,-2260.37C298,-2251.93 298,-2242.83 298,-2234.01"/>
<polygon fill="black" stroke="black" points="301.5,-2233.84 298,-2223.84 294.5,-2233.84 301.5,-2233.84"/>
</g>
<!-- n24 -->
<g id="node24" class="node"><title>n24</title>
<g id="a_node24"><a xlink:title="[[C]]:&#45;1_">
<ellipse fill="none" stroke="black" cx="298" cy="-2410" rx="232.457" ry="37.4533"/>
<text text-anchor="middle" x="298" y="-2421.3" font-family="Times,serif" font-size="14.00">Node24</text>
<text text-anchor="start" x="141.5" y="-2406.3" font-family="Times,serif" font-size="14.00">module = nn.SpatialConvolution(64 &#45;&gt; 64, 3x3, 1,1, 1,1)</text>
<text text-anchor="middle" x="298" y="-2391.3" font-family="Times,serif" font-size="14.00">reverseMap = {}</text>
</a>
</g>
</g>
<!-- n24&#45;&gt;n23 -->
<g id="edge23" class="edge"><title>n24&#45;&gt;n23</title>
<path fill="none" stroke="black" d="M298,-2372.37C298,-2363.93 298,-2354.83 298,-2346.01"/>
<polygon fill="black" stroke="black" points="301.5,-2345.84 298,-2335.84 294.5,-2345.84 301.5,-2345.84"/>
</g>
<!-- n25 -->
<g id="node25" class="node"><title>n25</title>
<g id="a_node25"><a xlink:title="[[C]]:&#45;1_">
<ellipse fill="none" stroke="black" cx="298" cy="-2522" rx="130.162" ry="37.4533"/>
<text text-anchor="middle" x="298" y="-2533.3" font-family="Times,serif" font-size="14.00">Node25</text>
<text text-anchor="start" x="214" y="-2518.3" font-family="Times,serif" font-size="14.00">module = nn.LeakyReLU(0.2)</text>
<text text-anchor="middle" x="298" y="-2503.3" font-family="Times,serif" font-size="14.00">reverseMap = {}</text>
</a>
</g>
</g>
<!-- n25&#45;&gt;n24 -->
<g id="edge24" class="edge"><title>n25&#45;&gt;n24</title>
<path fill="none" stroke="black" d="M298,-2484.37C298,-2475.93 298,-2466.83 298,-2458.01"/>
<polygon fill="black" stroke="black" points="301.5,-2457.84 298,-2447.84 294.5,-2457.84 301.5,-2457.84"/>
</g>
<!-- n26 -->
<g id="node26" class="node"><title>n26</title>
<g id="a_node26"><a xlink:title="[[C]]:&#45;1_">
<ellipse fill="none" stroke="black" cx="298" cy="-2634" rx="207.334" ry="37.4533"/>
<text text-anchor="middle" x="298" y="-2645.3" font-family="Times,serif" font-size="14.00">Node26</text>
<text text-anchor="start" x="159" y="-2630.3" font-family="Times,serif" font-size="14.00">module = nn.SpatialBatchNormalization (4D) (64)</text>
<text text-anchor="middle" x="298" y="-2615.3" font-family="Times,serif" font-size="14.00">reverseMap = {}</text>
</a>
</g>
</g>
<!-- n26&#45;&gt;n25 -->
<g id="edge25" class="edge"><title>n26&#45;&gt;n25</title>
<path fill="none" stroke="black" d="M298,-2596.37C298,-2587.93 298,-2578.83 298,-2570.01"/>
<polygon fill="black" stroke="black" points="301.5,-2569.84 298,-2559.84 294.5,-2569.84 301.5,-2569.84"/>
</g>
<!-- n27 -->
<g id="node27" class="node"><title>n27</title>
<g id="a_node27"><a xlink:title="[[C]]:&#45;1_">
<ellipse fill="none" stroke="black" cx="298" cy="-2746" rx="232.457" ry="37.4533"/>
<text text-anchor="middle" x="298" y="-2757.3" font-family="Times,serif" font-size="14.00">Node27</text>
<text text-anchor="start" x="141.5" y="-2742.3" font-family="Times,serif" font-size="14.00">module = nn.SpatialConvolution(64 &#45;&gt; 64, 3x3, 1,1, 1,1)</text>
<text text-anchor="middle" x="298" y="-2727.3" font-family="Times,serif" font-size="14.00">reverseMap = {}</text>
</a>
</g>
</g>
<!-- n27&#45;&gt;n26 -->
<g id="edge26" class="edge"><title>n27&#45;&gt;n26</title>
<path fill="none" stroke="black" d="M298,-2708.37C298,-2699.93 298,-2690.83 298,-2682.01"/>
<polygon fill="black" stroke="black" points="301.5,-2681.84 298,-2671.84 294.5,-2681.84 301.5,-2681.84"/>
</g>
<!-- n28 -->
<g id="node28" class="node"><title>n28</title>
<g id="a_node28"><a xlink:title="[[C]]:&#45;1_">
<ellipse fill="none" stroke="black" cx="296" cy="-2858" rx="130.162" ry="37.4533"/>
<text text-anchor="middle" x="296" y="-2869.3" font-family="Times,serif" font-size="14.00">Node28</text>
<text text-anchor="start" x="212" y="-2854.3" font-family="Times,serif" font-size="14.00">module = nn.LeakyReLU(0.2)</text>
<text text-anchor="middle" x="296" y="-2839.3" font-family="Times,serif" font-size="14.00">reverseMap = {}</text>
</a>
</g>
</g>
<!-- n28&#45;&gt;n27 -->
<g id="edge27" class="edge"><title>n28&#45;&gt;n27</title>
<path fill="none" stroke="black" d="M296.666,-2820.37C296.82,-2811.93 296.985,-2802.83 297.145,-2794.01"/>
<polygon fill="black" stroke="black" points="300.648,-2793.91 297.33,-2783.84 293.649,-2793.78 300.648,-2793.91"/>
</g>
<!-- n29&#45;&gt;n28 -->
<g id="edge28" class="edge"><title>n29&#45;&gt;n28</title>
<path fill="none" stroke="black" d="M295.333,-2932.37C295.41,-2923.93 295.492,-2914.83 295.573,-2906.01"/>
<polygon fill="black" stroke="black" points="299.074,-2905.87 295.665,-2895.84 292.074,-2905.81 299.074,-2905.87"/>
</g>
</g>
</svg>
